REM GENRE "Progressive Rock"
REM DATE "1973"
REM COMMENT "Sample CUE file for testing FLAC Player"
PERFORMER "Sample Artist"
TITLE "Sample Album - Test Recording"
FILE "sample-album.flac" WAVE
  TRACK 01 AUDIO
    TITLE "Opening Track"
    PERFORMER "Sample Artist"
    INDEX 01 00:00:00
  TRACK 02 AUDIO
    TITLE "Second Movement"
    PERFORMER "Sample Artist"
    INDEX 01 03:24:15
  TRACK 03 AUDIO
    TITLE "Interlude"
    PERFORMER "Sample Artist"
    INDEX 01 07:42:33
  TRACK 04 AUDIO
    TITLE "Main Theme"
    PERFORMER "Sample Artist"
    INDEX 01 10:15:47
  TRACK 05 AUDIO
    TITLE "Finale"
    PERFORMER "Sample Artist"
    INDEX 01 16:28:12
